<svg width="597" height="107" viewBox="0 0 597 107" fill="none" xmlns="http://www.w3.org/2000/svg">
<path d="M-87.6322 100.9C-85.7402 100.9 -84.0902 100.614 -82.6822 100.042C-81.2302 99.47 -79.9982 98.678 -78.9862 97.666C-77.9742 96.654 -77.1382 95.444 -76.4782 94.036C-75.7742 92.584 -75.2022 91 -74.7622 89.284L-74.5642 88.492H-69.0202L-69.2182 89.284C-69.8782 91.924 -70.7142 94.3 -71.7262 96.412C-72.6942 98.48 -73.9262 100.24 -75.4222 101.692C-76.8742 103.1 -78.6562 104.178 -80.7682 104.926C-82.8802 105.674 -85.3882 106.048 -88.2922 106.048C-90.4482 106.048 -92.3402 105.74 -93.9682 105.124C-95.5962 104.508 -96.9822 103.65 -98.1262 102.55C-99.2262 101.406 -100.062 100.064 -100.634 98.524C-101.206 96.984 -101.492 95.268 -101.492 93.376C-101.492 92.452 -101.448 91.484 -101.36 90.472C-101.228 89.416 -101.052 88.316 -100.832 87.172L-98.6542 76.876C-97.3342 70.628 -95.0462 65.92 -91.7902 62.752C-88.4902 59.584 -84.1562 58 -78.7882 58C-76.6762 58 -74.8062 58.308 -73.1782 58.924C-71.5062 59.54 -70.1202 60.398 -69.0202 61.498C-67.8762 62.554 -67.0182 63.852 -66.4462 65.392C-65.8302 66.888 -65.5222 68.516 -65.5222 70.276C-65.5222 71.684 -65.7202 73.18 -66.1162 74.764L-66.3142 75.556H-71.8582L-71.6602 74.764C-71.4402 73.928 -71.3082 73.202 -71.2642 72.586C-71.1762 71.926 -71.1322 71.288 -71.1322 70.672C-71.1322 68.34 -71.8142 66.492 -73.1782 65.128C-74.4982 63.72 -76.6542 63.016 -79.6462 63.016C-81.4062 63.016 -83.0122 63.368 -84.4642 64.072C-85.9162 64.776 -87.2142 65.766 -88.3582 67.042C-89.5022 68.274 -90.4922 69.77 -91.3282 71.53C-92.1202 73.246 -92.7362 75.16 -93.1762 77.272L-95.2222 86.776C-95.4422 87.788 -95.6182 88.734 -95.7502 89.614C-95.8382 90.494 -95.8822 91.33 -95.8822 92.122C-95.8822 95.07 -95.2222 97.27 -93.9022 98.722C-92.5822 100.174 -90.4922 100.9 -87.6322 100.9Z" fill="black"/>
<path d="M-58.5061 76.876C-57.2301 70.716 -54.9861 66.03 -51.7741 62.818C-48.5181 59.606 -44.1621 58 -38.7061 58C-34.4381 58 -31.1821 59.232 -28.9381 61.696C-26.6501 64.116 -25.5061 67.482 -25.5061 71.794C-25.5061 72.674 -25.5721 73.62 -25.7041 74.632C-25.7921 75.6 -25.9461 76.59 -26.1661 77.602L-28.2121 87.172C-29.4881 93.332 -31.7541 98.018 -35.0101 101.23C-38.2221 104.442 -42.5561 106.048 -48.0121 106.048C-52.2801 106.048 -55.5581 104.838 -57.8461 102.418C-60.0901 99.954 -61.2121 96.566 -61.2121 92.254C-61.2121 91.374 -61.1681 90.45 -61.0801 89.482C-60.9481 88.47 -60.7721 87.458 -60.5521 86.446L-58.5061 76.876ZM-47.2201 101.032C-45.4161 101.032 -43.7881 100.702 -42.3361 100.042C-40.8401 99.338 -39.5421 98.37 -38.4421 97.138C-37.2981 95.862 -36.3521 94.366 -35.6041 92.65C-34.8121 90.89 -34.1741 88.932 -33.6901 86.776L-31.5781 76.876C-31.2261 75.116 -31.0501 73.576 -31.0501 72.256C-31.0501 69.396 -31.7541 67.152 -33.1621 65.524C-34.5701 63.852 -36.6821 63.016 -39.4981 63.016C-43.1501 63.016 -46.0981 64.314 -48.3421 66.91C-50.5421 69.506 -52.1041 72.96 -53.0281 77.272L-55.1401 87.172C-55.4921 88.932 -55.6681 90.472 -55.6681 91.792C-55.6681 94.652 -54.9641 96.918 -53.5561 98.59C-52.1481 100.218 -50.0361 101.032 -47.2201 101.032Z" fill="black"/>
<path d="M0.84803 102.748H1.64003L10.946 58.924H16.49L6.65603 105.124H-4.23397L-6.87397 61.3H-7.66597L-16.972 105.124H-22.516L-12.682 58.924H-1.79197L0.84803 102.748Z" fill="black"/>
<path d="M24.0341 58.924H57.2321V64.072H43.8342L35.1221 105.124H29.5781L38.2901 64.072H24.0341V58.924Z" fill="black"/>
<path d="M85.3023 93.64H66.7563L61.1463 105.124H54.8763L77.7783 58.924H88.3383L91.6383 105.124H86.0283L85.3023 93.64ZM69.2643 88.492H84.9723L83.2563 61.366H82.4642L69.2643 88.492Z" fill="black"/>
<path d="M114.428 100.9C116.32 100.9 117.97 100.614 119.378 100.042C120.83 99.47 122.062 98.678 123.074 97.666C124.086 96.654 124.922 95.444 125.582 94.036C126.286 92.584 126.858 91 127.298 89.284L127.496 88.492H133.04L132.842 89.284C132.182 91.924 131.346 94.3 130.334 96.412C129.366 98.48 128.134 100.24 126.638 101.692C125.186 103.1 123.404 104.178 121.292 104.926C119.18 105.674 116.672 106.048 113.768 106.048C111.612 106.048 109.72 105.74 108.092 105.124C106.464 104.508 105.078 103.65 103.934 102.55C102.834 101.406 101.998 100.064 101.426 98.524C100.854 96.984 100.568 95.268 100.568 93.376C100.568 92.452 100.612 91.484 100.7 90.472C100.832 89.416 101.008 88.316 101.228 87.172L103.406 76.876C104.726 70.628 107.014 65.92 110.27 62.752C113.57 59.584 117.904 58 123.272 58C125.384 58 127.254 58.308 128.882 58.924C130.554 59.54 131.94 60.398 133.04 61.498C134.184 62.554 135.042 63.852 135.614 65.392C136.23 66.888 136.538 68.516 136.538 70.276C136.538 71.684 136.34 73.18 135.944 74.764L135.746 75.556H130.202L130.4 74.764C130.62 73.928 130.752 73.202 130.796 72.586C130.884 71.926 130.928 71.288 130.928 70.672C130.928 68.34 130.246 66.492 128.882 65.128C127.562 63.72 125.406 63.016 122.414 63.016C120.654 63.016 119.048 63.368 117.596 64.072C116.144 64.776 114.846 65.766 113.702 67.042C112.558 68.274 111.568 69.77 110.732 71.53C109.94 73.246 109.324 75.16 108.884 77.272L106.838 86.776C106.618 87.788 106.442 88.734 106.31 89.614C106.222 90.494 106.178 91.33 106.178 92.122C106.178 95.07 106.838 97.27 108.158 98.722C109.478 100.174 111.568 100.9 114.428 100.9Z" fill="black"/>
<path d="M145.27 58.924H178.468V64.072H165.07L156.358 105.124H150.814L159.526 64.072H145.27V58.924Z" fill="black"/>
<path d="M-127.632 42.9C-125.74 42.9 -124.09 42.614 -122.682 42.042C-121.23 41.47 -119.998 40.678 -118.986 39.666C-117.974 38.654 -117.138 37.444 -116.478 36.036C-115.774 34.584 -115.202 33 -114.762 31.284L-114.564 30.492H-109.02L-109.218 31.284C-109.878 33.924 -110.714 36.3 -111.726 38.412C-112.694 40.48 -113.926 42.24 -115.422 43.692C-116.874 45.1 -118.656 46.178 -120.768 46.926C-122.88 47.674 -125.388 48.048 -128.292 48.048C-130.448 48.048 -132.34 47.74 -133.968 47.124C-135.596 46.508 -136.982 45.65 -138.126 44.55C-139.226 43.406 -140.062 42.064 -140.634 40.524C-141.206 38.984 -141.492 37.268 -141.492 35.376C-141.492 34.452 -141.448 33.484 -141.36 32.472C-141.228 31.416 -141.052 30.316 -140.832 29.172L-138.654 18.876C-137.334 12.628 -135.046 7.92 -131.79 4.752C-128.49 1.584 -124.156 0 -118.788 0C-116.676 0 -114.806 0.308 -113.178 0.924C-111.506 1.54 -110.12 2.398 -109.02 3.498C-107.876 4.554 -107.018 5.852 -106.446 7.392C-105.83 8.888 -105.522 10.516 -105.522 12.276C-105.522 13.684 -105.72 15.18 -106.116 16.764L-106.314 17.556H-111.858L-111.66 16.764C-111.44 15.928 -111.308 15.202 -111.264 14.586C-111.176 13.926 -111.132 13.288 -111.132 12.672C-111.132 10.34 -111.814 8.492 -113.178 7.128C-114.498 5.72 -116.654 5.016 -119.646 5.016C-121.406 5.016 -123.012 5.368 -124.464 6.072C-125.916 6.776 -127.214 7.766 -128.358 9.042C-129.502 10.274 -130.492 11.77 -131.328 13.53C-132.12 15.246 -132.736 17.16 -133.176 19.272L-135.222 28.776C-135.442 29.788 -135.618 30.734 -135.75 31.614C-135.838 32.494 -135.882 33.33 -135.882 34.122C-135.882 37.07 -135.222 39.27 -133.902 40.722C-132.582 42.174 -130.492 42.9 -127.632 42.9Z" fill="black"/>
<path d="M-98.5061 18.876C-97.2301 12.716 -94.9861 8.03 -91.7741 4.818C-88.5181 1.606 -84.1621 0 -78.7061 0C-74.4381 0 -71.1821 1.232 -68.9381 3.696C-66.6501 6.116 -65.5061 9.482 -65.5061 13.794C-65.5061 14.674 -65.5721 15.62 -65.7041 16.632C-65.7921 17.6 -65.9461 18.59 -66.1661 19.602L-68.2121 29.172C-69.4881 35.332 -71.7541 40.018 -75.0101 43.23C-78.2221 46.442 -82.5561 48.048 -88.0121 48.048C-92.2801 48.048 -95.5581 46.838 -97.8461 44.418C-100.09 41.954 -101.212 38.566 -101.212 34.254C-101.212 33.374 -101.168 32.45 -101.08 31.482C-100.948 30.47 -100.772 29.458 -100.552 28.446L-98.5061 18.876ZM-87.2201 43.032C-85.4161 43.032 -83.7881 42.702 -82.3361 42.042C-80.8401 41.338 -79.5421 40.37 -78.4421 39.138C-77.2981 37.862 -76.3521 36.366 -75.6041 34.65C-74.8121 32.89 -74.1741 30.932 -73.6901 28.776L-71.5781 18.876C-71.2261 17.116 -71.0501 15.576 -71.0501 14.256C-71.0501 11.396 -71.7541 9.152 -73.1621 7.524C-74.5701 5.852 -76.6821 5.016 -79.4981 5.016C-83.1501 5.016 -86.0981 6.314 -88.3421 8.91C-90.5421 11.506 -92.1041 14.96 -93.0281 19.272L-95.1401 29.172C-95.4921 30.932 -95.6681 32.472 -95.6681 33.792C-95.6681 36.652 -94.9641 38.918 -93.5561 40.59C-92.1481 42.218 -90.0361 43.032 -87.2201 43.032Z" fill="black"/>
<path d="M-39.152 44.748H-38.36L-29.054 0.924H-23.51L-33.344 47.124H-44.234L-46.874 3.3H-47.666L-56.972 47.124H-62.516L-52.682 0.924H-41.792L-39.152 44.748Z" fill="black"/>
<path d="M-15.9659 0.924H17.2321V6.072H3.83415L-4.87785 47.124H-10.4219L-1.70985 6.072H-15.9659V0.924Z" fill="black"/>
<path d="M45.3023 35.64H26.7563L21.1463 47.124H14.8763L37.7783 0.924H48.3383L51.6383 47.124H46.0283L45.3023 35.64ZM29.2643 30.492H44.9723L43.2563 3.366H42.4642L29.2643 30.492Z" fill="black"/>
<path d="M74.4284 42.9C76.3204 42.9 77.9704 42.614 79.3784 42.042C80.8304 41.47 82.0624 40.678 83.0744 39.666C84.0864 38.654 84.9224 37.444 85.5824 36.036C86.2864 34.584 86.8584 33 87.2984 31.284L87.4964 30.492H93.0404L92.8424 31.284C92.1824 33.924 91.3464 36.3 90.3344 38.412C89.3664 40.48 88.1344 42.24 86.6384 43.692C85.1864 45.1 83.4044 46.178 81.2924 46.926C79.1804 47.674 76.6724 48.048 73.7684 48.048C71.6124 48.048 69.7204 47.74 68.0924 47.124C66.4644 46.508 65.0784 45.65 63.9344 44.55C62.8344 43.406 61.9984 42.064 61.4264 40.524C60.8544 38.984 60.5684 37.268 60.5684 35.376C60.5684 34.452 60.6124 33.484 60.7004 32.472C60.8324 31.416 61.0084 30.316 61.2284 29.172L63.4064 18.876C64.7264 12.628 67.0144 7.92 70.2704 4.752C73.5704 1.584 77.9044 0 83.2724 0C85.3844 0 87.2544 0.308 88.8824 0.924C90.5544 1.54 91.9404 2.398 93.0404 3.498C94.1844 4.554 95.0424 5.852 95.6144 7.392C96.2304 8.888 96.5384 10.516 96.5384 12.276C96.5384 13.684 96.3404 15.18 95.9444 16.764L95.7464 17.556H90.2024L90.4004 16.764C90.6204 15.928 90.7524 15.202 90.7964 14.586C90.8844 13.926 90.9284 13.288 90.9284 12.672C90.9284 10.34 90.2464 8.492 88.8824 7.128C87.5624 5.72 85.4064 5.016 82.4144 5.016C80.6544 5.016 79.0484 5.368 77.5964 6.072C76.1444 6.776 74.8464 7.766 73.7024 9.042C72.5584 10.274 71.5684 11.77 70.7324 13.53C69.9404 15.246 69.3244 17.16 68.8844 19.272L66.8384 28.776C66.6184 29.788 66.4424 30.734 66.3104 31.614C66.2224 32.494 66.1784 33.33 66.1784 34.122C66.1784 37.07 66.8384 39.27 68.1584 40.722C69.4784 42.174 71.5684 42.9 74.4284 42.9Z" fill="black"/>
<path d="M105.27 0.924H138.468V6.072H125.07L116.358 47.124H110.814L119.526 6.072H105.27V0.924Z" fill="black"/>
<path d="M195.368 100.9C197.26 100.9 198.91 100.614 200.318 100.042C201.77 99.47 203.002 98.678 204.014 97.666C205.026 96.654 205.862 95.444 206.522 94.036C207.226 92.584 207.798 91 208.238 89.284L208.436 88.492H213.98L213.782 89.284C213.122 91.924 212.286 94.3 211.274 96.412C210.306 98.48 209.074 100.24 207.578 101.692C206.126 103.1 204.344 104.178 202.232 104.926C200.12 105.674 197.612 106.048 194.708 106.048C192.552 106.048 190.66 105.74 189.032 105.124C187.404 104.508 186.018 103.65 184.874 102.55C183.774 101.406 182.938 100.064 182.366 98.524C181.794 96.984 181.508 95.268 181.508 93.376C181.508 92.452 181.552 91.484 181.64 90.472C181.772 89.416 181.948 88.316 182.168 87.172L184.346 76.876C185.666 70.628 187.954 65.92 191.21 62.752C194.51 59.584 198.844 58 204.212 58C206.324 58 208.194 58.308 209.822 58.924C211.494 59.54 212.88 60.398 213.98 61.498C215.124 62.554 215.982 63.852 216.554 65.392C217.17 66.888 217.478 68.516 217.478 70.276C217.478 71.684 217.28 73.18 216.884 74.764L216.686 75.556H211.142L211.34 74.764C211.56 73.928 211.692 73.202 211.736 72.586C211.824 71.926 211.868 71.288 211.868 70.672C211.868 68.34 211.186 66.492 209.822 65.128C208.502 63.72 206.346 63.016 203.354 63.016C201.594 63.016 199.988 63.368 198.536 64.072C197.084 64.776 195.786 65.766 194.642 67.042C193.498 68.274 192.508 69.77 191.672 71.53C190.88 73.246 190.264 75.16 189.824 77.272L187.778 86.776C187.558 87.788 187.382 88.734 187.25 89.614C187.162 90.494 187.118 91.33 187.118 92.122C187.118 95.07 187.778 97.27 189.098 98.722C190.418 100.174 192.508 100.9 195.368 100.9Z" fill="black"/>
<path d="M224.494 76.876C225.77 70.716 228.014 66.03 231.226 62.818C234.482 59.606 238.838 58 244.294 58C248.562 58 251.818 59.232 254.062 61.696C256.35 64.116 257.494 67.482 257.494 71.794C257.494 72.674 257.428 73.62 257.296 74.632C257.208 75.6 257.054 76.59 256.834 77.602L254.788 87.172C253.512 93.332 251.246 98.018 247.99 101.23C244.778 104.442 240.444 106.048 234.988 106.048C230.72 106.048 227.442 104.838 225.154 102.418C222.91 99.954 221.788 96.566 221.788 92.254C221.788 91.374 221.832 90.45 221.92 89.482C222.052 88.47 222.228 87.458 222.448 86.446L224.494 76.876ZM235.78 101.032C237.584 101.032 239.212 100.702 240.664 100.042C242.16 99.338 243.458 98.37 244.558 97.138C245.702 95.862 246.648 94.366 247.396 92.65C248.188 90.89 248.826 88.932 249.31 86.776L251.422 76.876C251.774 75.116 251.95 73.576 251.95 72.256C251.95 69.396 251.246 67.152 249.838 65.524C248.43 63.852 246.318 63.016 243.502 63.016C239.85 63.016 236.902 64.314 234.658 66.91C232.458 69.506 230.896 72.96 229.972 77.272L227.86 87.172C227.508 88.932 227.332 90.472 227.332 91.792C227.332 94.652 228.036 96.918 229.444 98.59C230.852 100.218 232.964 101.032 235.78 101.032Z" fill="black"/>
<path d="M283.848 102.748H284.64L293.946 58.924H299.49L289.656 105.124H278.766L276.126 61.3H275.334L266.028 105.124H260.484L270.318 58.924H281.208L283.848 102.748Z" fill="black"/>
<path d="M307.034 58.924H340.232V64.072H326.834L318.122 105.124H312.578L321.29 64.072H307.034V58.924Z" fill="black"/>
<path d="M368.302 93.64H349.756L344.146 105.124H337.876L360.778 58.924H371.338L374.638 105.124H369.028L368.302 93.64ZM352.264 88.492H367.972L366.256 61.366H365.464L352.264 88.492Z" fill="black"/>
<path d="M397.428 100.9C399.32 100.9 400.97 100.614 402.378 100.042C403.83 99.47 405.062 98.678 406.074 97.666C407.086 96.654 407.922 95.444 408.582 94.036C409.286 92.584 409.858 91 410.298 89.284L410.496 88.492H416.04L415.842 89.284C415.182 91.924 414.346 94.3 413.334 96.412C412.366 98.48 411.134 100.24 409.638 101.692C408.186 103.1 406.404 104.178 404.292 104.926C402.18 105.674 399.672 106.048 396.768 106.048C394.612 106.048 392.72 105.74 391.092 105.124C389.464 104.508 388.078 103.65 386.934 102.55C385.834 101.406 384.998 100.064 384.426 98.524C383.854 96.984 383.568 95.268 383.568 93.376C383.568 92.452 383.612 91.484 383.7 90.472C383.832 89.416 384.008 88.316 384.228 87.172L386.406 76.876C387.726 70.628 390.014 65.92 393.27 62.752C396.57 59.584 400.904 58 406.272 58C408.384 58 410.254 58.308 411.882 58.924C413.554 59.54 414.94 60.398 416.04 61.498C417.184 62.554 418.042 63.852 418.614 65.392C419.23 66.888 419.538 68.516 419.538 70.276C419.538 71.684 419.34 73.18 418.944 74.764L418.746 75.556H413.202L413.4 74.764C413.62 73.928 413.752 73.202 413.796 72.586C413.884 71.926 413.928 71.288 413.928 70.672C413.928 68.34 413.246 66.492 411.882 65.128C410.562 63.72 408.406 63.016 405.414 63.016C403.654 63.016 402.048 63.368 400.596 64.072C399.144 64.776 397.846 65.766 396.702 67.042C395.558 68.274 394.568 69.77 393.732 71.53C392.94 73.246 392.324 75.16 391.884 77.272L389.838 86.776C389.618 87.788 389.442 88.734 389.31 89.614C389.222 90.494 389.178 91.33 389.178 92.122C389.178 95.07 389.838 97.27 391.158 98.722C392.478 100.174 394.568 100.9 397.428 100.9Z" fill="black"/>
<path d="M428.27 58.924H461.468V64.072H448.07L439.358 105.124H433.814L442.526 64.072H428.27V58.924Z" fill="black"/>
<path d="M155.368 42.9C157.26 42.9 158.91 42.614 160.318 42.042C161.77 41.47 163.002 40.678 164.014 39.666C165.026 38.654 165.862 37.444 166.522 36.036C167.226 34.584 167.798 33 168.238 31.284L168.436 30.492H173.98L173.782 31.284C173.122 33.924 172.286 36.3 171.274 38.412C170.306 40.48 169.074 42.24 167.578 43.692C166.126 45.1 164.344 46.178 162.232 46.926C160.12 47.674 157.612 48.048 154.708 48.048C152.552 48.048 150.66 47.74 149.032 47.124C147.404 46.508 146.018 45.65 144.874 44.55C143.774 43.406 142.938 42.064 142.366 40.524C141.794 38.984 141.508 37.268 141.508 35.376C141.508 34.452 141.552 33.484 141.64 32.472C141.772 31.416 141.948 30.316 142.168 29.172L144.346 18.876C145.666 12.628 147.954 7.92 151.21 4.752C154.51 1.584 158.844 0 164.212 0C166.324 0 168.194 0.308 169.822 0.924C171.494 1.54 172.88 2.398 173.98 3.498C175.124 4.554 175.982 5.852 176.554 7.392C177.17 8.888 177.478 10.516 177.478 12.276C177.478 13.684 177.28 15.18 176.884 16.764L176.686 17.556H171.142L171.34 16.764C171.56 15.928 171.692 15.202 171.736 14.586C171.824 13.926 171.868 13.288 171.868 12.672C171.868 10.34 171.186 8.492 169.822 7.128C168.502 5.72 166.346 5.016 163.354 5.016C161.594 5.016 159.988 5.368 158.536 6.072C157.084 6.776 155.786 7.766 154.642 9.042C153.498 10.274 152.508 11.77 151.672 13.53C150.88 15.246 150.264 17.16 149.824 19.272L147.778 28.776C147.558 29.788 147.382 30.734 147.25 31.614C147.162 32.494 147.118 33.33 147.118 34.122C147.118 37.07 147.778 39.27 149.098 40.722C150.418 42.174 152.508 42.9 155.368 42.9Z" fill="black"/>
<path d="M184.494 18.876C185.77 12.716 188.014 8.03 191.226 4.818C194.482 1.606 198.838 0 204.294 0C208.562 0 211.818 1.232 214.062 3.696C216.35 6.116 217.494 9.482 217.494 13.794C217.494 14.674 217.428 15.62 217.296 16.632C217.208 17.6 217.054 18.59 216.834 19.602L214.788 29.172C213.512 35.332 211.246 40.018 207.99 43.23C204.778 46.442 200.444 48.048 194.988 48.048C190.72 48.048 187.442 46.838 185.154 44.418C182.91 41.954 181.788 38.566 181.788 34.254C181.788 33.374 181.832 32.45 181.92 31.482C182.052 30.47 182.228 29.458 182.448 28.446L184.494 18.876ZM195.78 43.032C197.584 43.032 199.212 42.702 200.664 42.042C202.16 41.338 203.458 40.37 204.558 39.138C205.702 37.862 206.648 36.366 207.396 34.65C208.188 32.89 208.826 30.932 209.31 28.776L211.422 18.876C211.774 17.116 211.95 15.576 211.95 14.256C211.95 11.396 211.246 9.152 209.838 7.524C208.43 5.852 206.318 5.016 203.502 5.016C199.85 5.016 196.902 6.314 194.658 8.91C192.458 11.506 190.896 14.96 189.972 19.272L187.86 29.172C187.508 30.932 187.332 32.472 187.332 33.792C187.332 36.652 188.036 38.918 189.444 40.59C190.852 42.218 192.964 43.032 195.78 43.032Z" fill="black"/>
<path d="M243.848 44.748H244.64L253.946 0.924H259.49L249.656 47.124H238.766L236.126 3.3H235.334L226.028 47.124H220.484L230.318 0.924H241.208L243.848 44.748Z" fill="black"/>
<path d="M267.034 0.924H300.232V6.072H286.834L278.122 47.124H272.578L281.29 6.072H267.034V0.924Z" fill="black"/>
<path d="M328.302 35.64H309.756L304.146 47.124H297.876L320.778 0.924H331.338L334.638 47.124H329.028L328.302 35.64ZM312.264 30.492H327.972L326.256 3.366H325.464L312.264 30.492Z" fill="black"/>
<path d="M357.428 42.9C359.32 42.9 360.97 42.614 362.378 42.042C363.83 41.47 365.062 40.678 366.074 39.666C367.086 38.654 367.922 37.444 368.582 36.036C369.286 34.584 369.858 33 370.298 31.284L370.496 30.492H376.04L375.842 31.284C375.182 33.924 374.346 36.3 373.334 38.412C372.366 40.48 371.134 42.24 369.638 43.692C368.186 45.1 366.404 46.178 364.292 46.926C362.18 47.674 359.672 48.048 356.768 48.048C354.612 48.048 352.72 47.74 351.092 47.124C349.464 46.508 348.078 45.65 346.934 44.55C345.834 43.406 344.998 42.064 344.426 40.524C343.854 38.984 343.568 37.268 343.568 35.376C343.568 34.452 343.612 33.484 343.7 32.472C343.832 31.416 344.008 30.316 344.228 29.172L346.406 18.876C347.726 12.628 350.014 7.92 353.27 4.752C356.57 1.584 360.904 0 366.272 0C368.384 0 370.254 0.308 371.882 0.924C373.554 1.54 374.94 2.398 376.04 3.498C377.184 4.554 378.042 5.852 378.614 7.392C379.23 8.888 379.538 10.516 379.538 12.276C379.538 13.684 379.34 15.18 378.944 16.764L378.746 17.556H373.202L373.4 16.764C373.62 15.928 373.752 15.202 373.796 14.586C373.884 13.926 373.928 13.288 373.928 12.672C373.928 10.34 373.246 8.492 371.882 7.128C370.562 5.72 368.406 5.016 365.414 5.016C363.654 5.016 362.048 5.368 360.596 6.072C359.144 6.776 357.846 7.766 356.702 9.042C355.558 10.274 354.568 11.77 353.732 13.53C352.94 15.246 352.324 17.16 351.884 19.272L349.838 28.776C349.618 29.788 349.442 30.734 349.31 31.614C349.222 32.494 349.178 33.33 349.178 34.122C349.178 37.07 349.838 39.27 351.158 40.722C352.478 42.174 354.568 42.9 357.428 42.9Z" fill="black"/>
<path d="M388.27 0.924H421.468V6.072H408.07L399.358 47.124H393.814L402.526 6.072H388.27V0.924Z" fill="black"/>
<path d="M478.368 100.9C480.26 100.9 481.91 100.614 483.318 100.042C484.77 99.47 486.002 98.678 487.014 97.666C488.026 96.654 488.862 95.444 489.522 94.036C490.226 92.584 490.798 91 491.238 89.284L491.436 88.492H496.98L496.782 89.284C496.122 91.924 495.286 94.3 494.274 96.412C493.306 98.48 492.074 100.24 490.578 101.692C489.126 103.1 487.344 104.178 485.232 104.926C483.12 105.674 480.612 106.048 477.708 106.048C475.552 106.048 473.66 105.74 472.032 105.124C470.404 104.508 469.018 103.65 467.874 102.55C466.774 101.406 465.938 100.064 465.366 98.524C464.794 96.984 464.508 95.268 464.508 93.376C464.508 92.452 464.552 91.484 464.64 90.472C464.772 89.416 464.948 88.316 465.168 87.172L467.346 76.876C468.666 70.628 470.954 65.92 474.21 62.752C477.51 59.584 481.844 58 487.212 58C489.324 58 491.194 58.308 492.822 58.924C494.494 59.54 495.88 60.398 496.98 61.498C498.124 62.554 498.982 63.852 499.554 65.392C500.17 66.888 500.478 68.516 500.478 70.276C500.478 71.684 500.28 73.18 499.884 74.764L499.686 75.556H494.142L494.34 74.764C494.56 73.928 494.692 73.202 494.736 72.586C494.824 71.926 494.868 71.288 494.868 70.672C494.868 68.34 494.186 66.492 492.822 65.128C491.502 63.72 489.346 63.016 486.354 63.016C484.594 63.016 482.988 63.368 481.536 64.072C480.084 64.776 478.786 65.766 477.642 67.042C476.498 68.274 475.508 69.77 474.672 71.53C473.88 73.246 473.264 75.16 472.824 77.272L470.778 86.776C470.558 87.788 470.382 88.734 470.25 89.614C470.162 90.494 470.118 91.33 470.118 92.122C470.118 95.07 470.778 97.27 472.098 98.722C473.418 100.174 475.508 100.9 478.368 100.9Z" fill="black"/>
<path d="M507.494 76.876C508.77 70.716 511.014 66.03 514.226 62.818C517.482 59.606 521.838 58 527.294 58C531.562 58 534.818 59.232 537.062 61.696C539.35 64.116 540.494 67.482 540.494 71.794C540.494 72.674 540.428 73.62 540.296 74.632C540.208 75.6 540.054 76.59 539.834 77.602L537.788 87.172C536.512 93.332 534.246 98.018 530.99 101.23C527.778 104.442 523.444 106.048 517.988 106.048C513.72 106.048 510.442 104.838 508.154 102.418C505.91 99.954 504.788 96.566 504.788 92.254C504.788 91.374 504.832 90.45 504.92 89.482C505.052 88.47 505.228 87.458 505.448 86.446L507.494 76.876ZM518.78 101.032C520.584 101.032 522.212 100.702 523.664 100.042C525.16 99.338 526.458 98.37 527.558 97.138C528.702 95.862 529.648 94.366 530.396 92.65C531.188 90.89 531.826 88.932 532.31 86.776L534.422 76.876C534.774 75.116 534.95 73.576 534.95 72.256C534.95 69.396 534.246 67.152 532.838 65.524C531.43 63.852 529.318 63.016 526.502 63.016C522.85 63.016 519.902 64.314 517.658 66.91C515.458 69.506 513.896 72.96 512.972 77.272L510.86 87.172C510.508 88.932 510.332 90.472 510.332 91.792C510.332 94.652 511.036 96.918 512.444 98.59C513.852 100.218 515.964 101.032 518.78 101.032Z" fill="black"/>
<path d="M566.848 102.748H567.64L576.946 58.924H582.49L572.656 105.124H561.766L559.126 61.3H558.334L549.028 105.124H543.484L553.318 58.924H564.208L566.848 102.748Z" fill="black"/>
<path d="M590.034 58.924H623.232V64.072H609.834L601.122 105.124H595.578L604.29 64.072H590.034V58.924Z" fill="black"/>
<path d="M651.302 93.64H632.756L627.146 105.124H620.876L643.778 58.924H654.338L657.638 105.124H652.028L651.302 93.64ZM635.264 88.492H650.972L649.256 61.366H648.464L635.264 88.492Z" fill="black"/>
<path d="M680.428 100.9C682.32 100.9 683.97 100.614 685.378 100.042C686.83 99.47 688.062 98.678 689.074 97.666C690.086 96.654 690.922 95.444 691.582 94.036C692.286 92.584 692.858 91 693.298 89.284L693.496 88.492H699.04L698.842 89.284C698.182 91.924 697.346 94.3 696.334 96.412C695.366 98.48 694.134 100.24 692.638 101.692C691.186 103.1 689.404 104.178 687.292 104.926C685.18 105.674 682.672 106.048 679.768 106.048C677.612 106.048 675.72 105.74 674.092 105.124C672.464 104.508 671.078 103.65 669.934 102.55C668.834 101.406 667.998 100.064 667.426 98.524C666.854 96.984 666.568 95.268 666.568 93.376C666.568 92.452 666.612 91.484 666.7 90.472C666.832 89.416 667.008 88.316 667.228 87.172L669.406 76.876C670.726 70.628 673.014 65.92 676.27 62.752C679.57 59.584 683.904 58 689.272 58C691.384 58 693.254 58.308 694.882 58.924C696.554 59.54 697.94 60.398 699.04 61.498C700.184 62.554 701.042 63.852 701.614 65.392C702.23 66.888 702.538 68.516 702.538 70.276C702.538 71.684 702.34 73.18 701.944 74.764L701.746 75.556H696.202L696.4 74.764C696.62 73.928 696.752 73.202 696.796 72.586C696.884 71.926 696.928 71.288 696.928 70.672C696.928 68.34 696.246 66.492 694.882 65.128C693.562 63.72 691.406 63.016 688.414 63.016C686.654 63.016 685.048 63.368 683.596 64.072C682.144 64.776 680.846 65.766 679.702 67.042C678.558 68.274 677.568 69.77 676.732 71.53C675.94 73.246 675.324 75.16 674.884 77.272L672.838 86.776C672.618 87.788 672.442 88.734 672.31 89.614C672.222 90.494 672.178 91.33 672.178 92.122C672.178 95.07 672.838 97.27 674.158 98.722C675.478 100.174 677.568 100.9 680.428 100.9Z" fill="black"/>
<path d="M711.27 58.924H744.468V64.072H731.07L722.358 105.124H716.814L725.526 64.072H711.27V58.924Z" fill="black"/>
<path d="M438.368 42.9C440.26 42.9 441.91 42.614 443.318 42.042C444.77 41.47 446.002 40.678 447.014 39.666C448.026 38.654 448.862 37.444 449.522 36.036C450.226 34.584 450.798 33 451.238 31.284L451.436 30.492H456.98L456.782 31.284C456.122 33.924 455.286 36.3 454.274 38.412C453.306 40.48 452.074 42.24 450.578 43.692C449.126 45.1 447.344 46.178 445.232 46.926C443.12 47.674 440.612 48.048 437.708 48.048C435.552 48.048 433.66 47.74 432.032 47.124C430.404 46.508 429.018 45.65 427.874 44.55C426.774 43.406 425.938 42.064 425.366 40.524C424.794 38.984 424.508 37.268 424.508 35.376C424.508 34.452 424.552 33.484 424.64 32.472C424.772 31.416 424.948 30.316 425.168 29.172L427.346 18.876C428.666 12.628 430.954 7.92 434.21 4.752C437.51 1.584 441.844 0 447.212 0C449.324 0 451.194 0.308 452.822 0.924C454.494 1.54 455.88 2.398 456.98 3.498C458.124 4.554 458.982 5.852 459.554 7.392C460.17 8.888 460.478 10.516 460.478 12.276C460.478 13.684 460.28 15.18 459.884 16.764L459.686 17.556H454.142L454.34 16.764C454.56 15.928 454.692 15.202 454.736 14.586C454.824 13.926 454.868 13.288 454.868 12.672C454.868 10.34 454.186 8.492 452.822 7.128C451.502 5.72 449.346 5.016 446.354 5.016C444.594 5.016 442.988 5.368 441.536 6.072C440.084 6.776 438.786 7.766 437.642 9.042C436.498 10.274 435.508 11.77 434.672 13.53C433.88 15.246 433.264 17.16 432.824 19.272L430.778 28.776C430.558 29.788 430.382 30.734 430.25 31.614C430.162 32.494 430.118 33.33 430.118 34.122C430.118 37.07 430.778 39.27 432.098 40.722C433.418 42.174 435.508 42.9 438.368 42.9Z" fill="black"/>
<path d="M467.494 18.876C468.77 12.716 471.014 8.03 474.226 4.818C477.482 1.606 481.838 0 487.294 0C491.562 0 494.818 1.232 497.062 3.696C499.35 6.116 500.494 9.482 500.494 13.794C500.494 14.674 500.428 15.62 500.296 16.632C500.208 17.6 500.054 18.59 499.834 19.602L497.788 29.172C496.512 35.332 494.246 40.018 490.99 43.23C487.778 46.442 483.444 48.048 477.988 48.048C473.72 48.048 470.442 46.838 468.154 44.418C465.91 41.954 464.788 38.566 464.788 34.254C464.788 33.374 464.832 32.45 464.92 31.482C465.052 30.47 465.228 29.458 465.448 28.446L467.494 18.876ZM478.78 43.032C480.584 43.032 482.212 42.702 483.664 42.042C485.16 41.338 486.458 40.37 487.558 39.138C488.702 37.862 489.648 36.366 490.396 34.65C491.188 32.89 491.826 30.932 492.31 28.776L494.422 18.876C494.774 17.116 494.95 15.576 494.95 14.256C494.95 11.396 494.246 9.152 492.838 7.524C491.43 5.852 489.318 5.016 486.502 5.016C482.85 5.016 479.902 6.314 477.658 8.91C475.458 11.506 473.896 14.96 472.972 19.272L470.86 29.172C470.508 30.932 470.332 32.472 470.332 33.792C470.332 36.652 471.036 38.918 472.444 40.59C473.852 42.218 475.964 43.032 478.78 43.032Z" fill="black"/>
<path d="M526.848 44.748H527.64L536.946 0.924H542.49L532.656 47.124H521.766L519.126 3.3H518.334L509.028 47.124H503.484L513.318 0.924H524.208L526.848 44.748Z" fill="black"/>
<path d="M550.034 0.924H583.232V6.072H569.834L561.122 47.124H555.578L564.29 6.072H550.034V0.924Z" fill="black"/>
<path d="M611.302 35.64H592.756L587.146 47.124H580.876L603.778 0.924H614.338L617.638 47.124H612.028L611.302 35.64ZM595.264 30.492H610.972L609.256 3.366H608.464L595.264 30.492Z" fill="black"/>
<path d="M640.428 42.9C642.32 42.9 643.97 42.614 645.378 42.042C646.83 41.47 648.062 40.678 649.074 39.666C650.086 38.654 650.922 37.444 651.582 36.036C652.286 34.584 652.858 33 653.298 31.284L653.496 30.492H659.04L658.842 31.284C658.182 33.924 657.346 36.3 656.334 38.412C655.366 40.48 654.134 42.24 652.638 43.692C651.186 45.1 649.404 46.178 647.292 46.926C645.18 47.674 642.672 48.048 639.768 48.048C637.612 48.048 635.72 47.74 634.092 47.124C632.464 46.508 631.078 45.65 629.934 44.55C628.834 43.406 627.998 42.064 627.426 40.524C626.854 38.984 626.568 37.268 626.568 35.376C626.568 34.452 626.612 33.484 626.7 32.472C626.832 31.416 627.008 30.316 627.228 29.172L629.406 18.876C630.726 12.628 633.014 7.92 636.27 4.752C639.57 1.584 643.904 0 649.272 0C651.384 0 653.254 0.308 654.882 0.924C656.554 1.54 657.94 2.398 659.04 3.498C660.184 4.554 661.042 5.852 661.614 7.392C662.23 8.888 662.538 10.516 662.538 12.276C662.538 13.684 662.34 15.18 661.944 16.764L661.746 17.556H656.202L656.4 16.764C656.62 15.928 656.752 15.202 656.796 14.586C656.884 13.926 656.928 13.288 656.928 12.672C656.928 10.34 656.246 8.492 654.882 7.128C653.562 5.72 651.406 5.016 648.414 5.016C646.654 5.016 645.048 5.368 643.596 6.072C642.144 6.776 640.846 7.766 639.702 9.042C638.558 10.274 637.568 11.77 636.732 13.53C635.94 15.246 635.324 17.16 634.884 19.272L632.838 28.776C632.618 29.788 632.442 30.734 632.31 31.614C632.222 32.494 632.178 33.33 632.178 34.122C632.178 37.07 632.838 39.27 634.158 40.722C635.478 42.174 637.568 42.9 640.428 42.9Z" fill="black"/>
<path d="M671.27 0.924H704.468V6.072H691.07L682.358 47.124H676.814L685.526 6.072H671.27V0.924Z" fill="black"/>
</svg>
